<svg version="1.2" baseProfile="tiny-ps" xmlns="http://www.w3.org/2000/svg" viewBox="0 0 300 75" width="300" height="75">
	<title>site-logo-white-svg</title>
	<style>
		tspan { white-space:pre }
		.shp0 { fill: #ffffff } 
		.shp1 { fill: #fabd59 } 
		.shp2 { fill: none } 
	</style>
	<g id="Layer_2">
		<g id="Dark_Background_Logo">
			<g id="Elizabethtown_Public_Library">
				<path id="Layer" fill-rule="evenodd" class="shp0" d="M57.91 68.39L56.15 68.39L56.15 73.61L51.6 73.61L51.6 55.61L58.26 55.61C63.26 55.61 65.96 58.15 65.96 61.87C65.96 66.08 63.11 68.39 57.96 68.39M57.91 59.22L56.07 59.22L56.07 64.84L57.91 64.84C60.28 64.84 61.41 63.84 61.41 61.99C61.41 60.14 60.22 59.25 57.91 59.25L57.91 59.22Z" />
				<path id="Layer" class="shp0" d="M78.79 74C74.09 74 70.86 71.69 70.86 66.62L70.86 55.58L75.42 55.58L75.42 66.05C75.42 68.76 76.52 70.17 78.91 70.17C81.07 70.17 82.2 69.02 82.2 66.17L82.2 55.58L86.76 55.58L86.76 66.25C86.76 71.47 83.64 74.04 78.76 74.04" />
				<path id="Layer" fill-rule="evenodd" class="shp0" d="M107.54 68.37C107.54 71.25 106.01 73.62 100.24 73.62L92.4 73.62L92.4 55.62L100.22 55.62C105.58 55.62 107.02 57.62 107.02 60.32C107.02 62.32 105.75 63.64 103.68 64.22C105.98 64.65 107.57 66.22 107.57 68.4M99.75 59L96.81 59L96.81 63.16L99.52 63.16C101.43 63.16 102.41 62.38 102.41 61.02C102.41 59.66 101.48 59.02 99.75 59.02L99.75 59ZM96.84 66L96.84 70.15L99.93 70.15C102 70.15 102.93 69.49 102.93 68.08C102.93 66.67 101.69 66 99.75 66L96.84 66Z" />
				<path id="Layer" class="shp0" d="M113.96 73.61L113.96 55.58L118.54 55.58L118.54 69.77L126.1 69.77L126.1 73.61L113.96 73.61L113.96 73.61Z" />
				<path id="Layer" class="shp0" d="M131.74 55.58L136.33 55.58L136.33 73.6L131.74 73.6L131.74 55.58Z" />
				<path id="Layer" class="shp0" d="M156.28 60.34C155.94 60.13 155.58 59.95 155.22 59.79C154.85 59.63 154.47 59.49 154.09 59.38C153.7 59.27 153.31 59.19 152.92 59.13C152.52 59.08 152.12 59.04 151.72 59.04C148.61 59.04 146.59 61.15 146.59 64.55C146.59 67.95 148.49 70.15 151.75 70.15C152.17 70.15 152.59 70.11 153.01 70.05C153.43 69.98 153.84 69.89 154.24 69.76C154.64 69.64 155.03 69.48 155.41 69.3C155.79 69.12 156.16 68.91 156.51 68.67L157.51 72.74C157.05 72.96 156.58 73.15 156.1 73.31C155.62 73.48 155.13 73.62 154.63 73.73C154.13 73.83 153.63 73.92 153.12 73.97C152.62 74.02 152.11 74.04 151.6 74.04C145.83 74.04 142.02 70.72 142.02 64.67C142.02 58.84 145.8 55.15 151.75 55.15C152.27 55.15 152.78 55.18 153.3 55.24C153.81 55.29 154.32 55.38 154.83 55.49C155.33 55.61 155.83 55.75 156.32 55.92C156.81 56.09 157.28 56.29 157.75 56.51L156.28 60.34Z" />
				<path id="Layer" class="shp0" d="M172.38 73.61L172.38 55.58L176.97 55.58L176.97 69.77L184.52 69.77L184.52 73.61L172.38 73.61L172.38 73.61Z" />
				<path id="Layer" class="shp0" d="M190.66 55.58L195.25 55.58L195.25 73.6L190.66 73.6L190.66 55.58Z" />
				<path id="Layer" fill-rule="evenodd" class="shp0" d="M217.08 68.4C217.08 68.4 217.08 68.39 217.08 68.39C217.08 68.38 217.08 68.38 217.08 68.37M209.78 73.62L201.91 73.62L201.91 55.62L209.73 55.62C215.09 55.62 216.53 57.62 216.53 60.32C216.53 62.32 215.27 63.64 213.19 64.22C215.5 64.65 217.07 66.21 217.08 68.39C217.07 71.26 215.54 73.62 209.78 73.62ZM209.29 59L206.35 59L206.35 63.16L209.06 63.16C210.97 63.16 211.95 62.38 211.95 61.02C211.95 59.66 211.02 59.02 209.29 59.02L209.29 59ZM206.38 66L206.38 70.15L209.47 70.15C211.54 70.15 212.47 69.49 212.47 68.08C212.47 66.67 211.23 66 209.29 66L206.38 66Z" />
				<path id="Layer" fill-rule="evenodd" class="shp0" d="M227.29 73.61L222.71 73.61L222.71 55.61L230 55.61C234.79 55.61 237.3 57.83 237.3 61.32C237.32 61.89 237.24 62.46 237.07 63.01C236.91 63.55 236.65 64.07 236.32 64.54C235.99 65 235.58 65.41 235.12 65.75C234.66 66.08 234.15 66.34 233.6 66.51L238.22 73.64L233 73.64L229.4 67.58L227.29 67.75L227.29 73.61ZM229.51 64.26C231.51 64.12 232.51 63.26 232.51 61.58C232.51 59.9 231.42 59.22 229.11 59.22L227.18 59.22L227.18 64.32L229.51 64.26Z" />
				<path id="Layer" fill-rule="evenodd" class="shp0" d="M259.63 73.61L255.07 73.61L253.74 69.77L247.05 69.77L245.75 73.61L241.2 73.61L247.6 55.61L253.34 55.61L259.63 73.61ZM250.43 59.13L248 66.2L252.7 66.2L250.43 59.13Z" />
				<path id="Layer" fill-rule="evenodd" class="shp0" d="M269 73.61L264.41 73.61L264.41 55.61L271.65 55.61C276.44 55.61 278.95 57.83 278.95 61.32C278.97 61.89 278.89 62.46 278.73 63.01C278.56 63.55 278.31 64.07 277.98 64.53C277.64 65 277.24 65.41 276.78 65.74C276.32 66.08 275.8 66.34 275.26 66.51L279.88 73.64L274.71 73.64L271.11 67.58L269 67.75L269 73.61ZM271.25 64.26C273.25 64.12 274.25 63.26 274.25 61.58C274.25 59.9 273.15 59.22 270.85 59.22L268.91 59.22L268.91 64.32L271.25 64.26Z" />
				<path id="Layer" class="shp0" d="M293.29 66.77L293.29 73.61L288.79 73.61L288.79 66.74L282.5 55.58L287.38 55.58L291.1 62.71L294.7 55.58L299.55 55.58L293.29 66.77L293.29 66.77Z" />
				<path id="Layer" class="shp1" d="M1.16 73.6L6.28 64.59L1.16 55.59L1.16 55.58L40.5 55.58L40.5 73.61L1.16 73.61L1.16 73.6L1.16 73.6Z" />
				<path id="Layer" class="shp0" d="M18.36 5.77L6.79 5.77L6.79 18.24L16.38 18.24L16.38 23.09L6.79 23.09L6.79 41.71L18.36 41.71L18.36 46.56L1.11 46.56L1.11 0.93L18.36 0.93L18.36 5.77L18.36 5.77Z" />
				<path id="Layer" class="shp0" d="M30.81 0.93L30.81 41.71L45.37 41.71L45.37 46.56L25.08 46.56L25.08 0.93L30.81 0.93L30.81 0.93Z" />
				<path id="Layer" class="shp0" d="M39.53 0.93L45.26 0.93L45.26 35.6L39.53 35.6L39.53 0.93Z" />
				<path id="Layer" fill-rule="evenodd" class="shp0" d="M67.38 35.6L76.38 0.93L82.89 0.93L91.75 35.6L85.86 35.6L84.2 28.71L74.76 28.71L73 35.6L67.38 35.6ZM75.67 23.81L83.17 23.81L79.47 8.54L79.32 8.54L75.67 23.81Z" />
				<path id="Layer" fill-rule="evenodd" class="shp0" d="M115.86 26.37C115.86 32.31 112.36 35.6 106.21 35.6L96.21 35.6L96.21 0.93L105.6 0.93C111.54 0.93 115.03 3.54 115.03 9.32L115.03 10.47C115.04 11.08 114.97 11.69 114.82 12.28C114.67 12.87 114.45 13.44 114.15 13.97C113.85 14.51 113.49 15 113.07 15.44C112.64 15.87 112.16 16.26 111.64 16.57C112.3 16.89 112.91 17.3 113.45 17.79C113.99 18.28 114.45 18.85 114.83 19.48C115.2 20.1 115.48 20.78 115.66 21.49C115.83 22.2 115.91 22.93 115.87 23.66L115.86 26.37ZM109.39 9.16C109.39 6.77 107.98 5.88 105.22 5.88L101.88 5.88L101.88 14.74L105.27 14.74C107.93 14.74 109.39 13.74 109.39 11.15L109.39 9.16ZM110.12 23.5C110.12 21.5 109.12 19.43 106.47 19.43L101.88 19.43L101.88 30.8L106.21 30.8C109.03 30.8 110.12 28.8 110.12 26.47L110.12 23.5Z" />
				<path id="Layer" class="shp0" d="M137.11 5.93L125.54 5.93L125.54 14.64L135.13 14.64L135.13 19.49L125.54 19.49L125.54 30.75L137.11 30.75L137.11 35.59L119.86 35.59L119.86 0.93L137.11 0.93L137.11 5.93L137.11 5.93Z" />
				<path id="Layer" class="shp0" d="M148.96 35.6L148.96 5.93L141.14 5.93L141.14 0.93L162.62 0.93L162.62 5.93L154.64 5.93L154.64 35.6L148.96 35.6L148.96 35.6Z" />
				<path id="Layer" class="shp0" d="M182.44 35.6L182.44 19.8L172.95 19.8L172.95 35.6L167.21 35.6L167.21 0.93L172.95 0.93L172.95 14.95L182.44 14.95L182.44 0.93L188.12 0.93L188.12 35.6L182.44 35.6L182.44 35.6Z" />
				<path id="Layer" class="shp0" d="M199.68 35.6L199.68 5.93L191.86 5.93L191.86 0.93L213.33 0.93L213.33 5.93L205.36 5.93L205.36 35.6L199.68 35.6L199.68 35.6Z" />
				<path id="Layer" fill-rule="evenodd" class="shp0" d="M236.19 24.39C236.19 31.48 232.85 35.6 226.19 35.6C219.53 35.6 216.39 31.48 216.39 24.39L216.39 11.09C216.39 4 219.62 -0.11 226.24 -0.11C232.86 -0.11 236.15 4 236.15 11.09L236.19 24.39ZM230.51 10.73C230.51 7.73 229.62 4.73 226.23 4.73C222.84 4.73 222.11 7.73 222.11 10.73L222.11 24.73C222.11 27.73 222.9 30.73 226.23 30.73C229.56 30.73 230.51 27.81 230.51 24.73L230.51 10.73Z" />
				<path id="Layer" class="shp0" d="M258.09 0.93L263.83 25.9L264.09 25.9L267.84 0.93L273.52 0.93L267.22 35.6L261.64 35.6L256.11 12.09L255.9 12.09L250.43 35.6L245.17 35.6L239.12 0.93L244.85 0.93L248.35 25.9L248.55 25.9L254.18 0.93L258.09 0.93L258.09 0.93Z" />
				<path id="Layer" class="shp0" d="M299.6 35.6L293.6 35.6L283.33 10.83L283.12 10.83L283.12 35.6L278.32 35.6L278.32 0.93L284.32 0.93L294.54 26.21L294.8 26.21L294.8 0.93L299.6 0.93L299.6 35.6L299.6 35.6Z" />
				<path id="Layer" class="shp0" d="M55.85 41.55L299.5 41.55L299.5 46.56L50.47 46.56L50.47 41.55L63.6 5.94L50.47 5.94L50.47 0.93L68.94 0.93L68.94 5.94L55.85 41.55L55.85 41.55Z" />
				<path id="Layer" class="shp2" d="M-47 -48L348.94 -48L348.94 120.96L-47 120.96L-47 -48Z" />
			</g>
		</g>
	</g>
</svg>