<svg version="1.2" baseProfile="tiny-ps" xmlns="http://www.w3.org/2000/svg" viewBox="0 0 304 75" width="304" height="75">
	<title>site-logo-dark-svg</title>
	<style>
		tspan { white-space:pre }
		.shp0 { fill: #1d2a42 } 
		.shp1 { fill: #fabd59 } 
		.shp2 { fill: none;stroke: #c6c3cc;stroke-linecap:round;stroke-linejoin:round } 
	</style>
	<g id="Layer_2">
		<g id="Layer_11">
			<path id="Layer" fill-rule="evenodd" class="shp0" d="M59.45 68.57L57.68 68.57L57.68 73.82L53.09 73.82L53.09 55.72L59.8 55.72C64.88 55.72 67.55 58.27 67.55 62.01C67.55 66.25 64.68 68.57 59.48 68.57M57.59 59.37L57.59 65L59.45 65C61.83 65 62.96 64 62.96 62.13C62.96 60.26 61.77 59.37 59.45 59.37L57.59 59.37Z" />
			<path id="Layer" class="shp0" d="M80.46 74.29C75.73 74.29 72.46 71.97 72.46 66.86L72.46 55.72L77.05 55.72L77.05 66.25C77.05 68.98 78.15 70.4 80.56 70.4C82.73 70.4 83.87 69.24 83.87 66.4L83.87 55.72L88.45 55.72L88.45 66.45C88.45 71.71 85.32 74.29 80.45 74.29" />
			<path id="Layer" fill-rule="evenodd" class="shp0" d="M109.34 68.65C109.34 71.55 107.8 73.93 102 73.93L94.07 73.93L94.07 55.72L102 55.72C107.4 55.72 108.85 57.78 108.85 60.45C108.85 62.51 107.57 63.78 105.48 64.36C107.8 64.8 109.4 66.36 109.4 68.57M101.54 59.22L98.54 59.22L98.54 63.4L101.27 63.4C103.19 63.4 104.17 62.62 104.17 61.25C104.17 59.88 103.24 59.25 101.5 59.25L101.54 59.22ZM98.58 66.22L98.58 70.4L101.69 70.4C103.78 70.4 104.74 69.73 104.74 68.31C104.74 66.89 103.49 66.22 101.54 66.22L98.58 66.22Z" />
			<path id="Layer" class="shp0" d="M115.85 73.85L115.85 55.72L120.46 55.72L120.46 69.99L128.07 69.99L128.07 73.85L115.85 73.85L115.85 73.85Z" />
			<path id="Layer" class="shp0" d="M133.75 55.72L138.36 55.72L138.36 73.86L133.75 73.86L133.75 55.72Z" />
			<path id="Layer" class="shp0" d="M158.44 60.51C158.1 60.3 157.74 60.11 157.37 59.95C157 59.79 156.62 59.66 156.23 59.55C155.85 59.43 155.45 59.35 155.05 59.29C154.65 59.23 154.25 59.2 153.85 59.2C150.72 59.2 148.68 61.32 148.68 64.74C148.68 68.16 150.6 70.37 153.88 70.37C154.3 70.37 154.73 70.33 155.15 70.27C155.56 70.2 155.98 70.11 156.38 69.98C156.79 69.86 157.18 69.7 157.57 69.52C157.95 69.34 158.32 69.13 158.67 68.89L159.67 72.98C159.21 73.2 158.73 73.39 158.25 73.56C157.76 73.72 157.27 73.86 156.77 73.97C156.27 74.08 155.76 74.17 155.25 74.22C154.74 74.27 154.23 74.29 153.72 74.29C147.91 74.29 144.08 70.95 144.08 64.86C144.08 59 147.88 55.28 153.86 55.28C154.38 55.28 154.89 55.31 155.41 55.37C155.92 55.43 156.43 55.51 156.94 55.63C157.44 55.74 157.94 55.89 158.43 56.06C158.92 56.23 159.39 56.43 159.86 56.65L158.44 60.51Z" />
			<path id="Layer" class="shp0" d="M174.63 73.85L174.63 55.72L179.25 55.72L179.25 69.99L186.85 69.99L186.85 73.85L174.63 73.85L174.63 73.85Z" />
			<path id="Layer" class="shp0" d="M193.03 55.72L197.64 55.72L197.64 73.86L193.03 73.86L193.03 55.72Z" />
			<path id="Layer" fill-rule="evenodd" class="shp0" d="M219.65 68.65C219.65 71.55 218.11 73.93 212.31 73.93L204.38 73.93L204.38 55.72L212.25 55.72C217.65 55.72 219.1 57.78 219.1 60.45C219.1 62.51 217.82 63.78 215.73 64.36C218.05 64.8 219.65 66.36 219.65 68.57M211.85 59.22L208.85 59.22L208.85 63.4L211.58 63.4C213.5 63.4 214.48 62.62 214.48 61.25C214.48 59.88 213.55 59.25 211.81 59.25L211.85 59.22ZM208.81 66.22L208.81 70.4L212 70.4C214.09 70.4 215.05 69.73 215.05 68.31C215.05 66.89 213.8 66.22 211.85 66.22L208.81 66.22Z" />
			<path id="Layer" fill-rule="evenodd" class="shp0" d="M229.9 73.85L225.28 73.85L225.28 55.72L232.57 55.72C237.38 55.72 239.91 57.95 239.91 61.46C239.93 62.03 239.85 62.61 239.68 63.16C239.51 63.71 239.26 64.23 238.93 64.7C238.59 65.17 238.18 65.58 237.72 65.92C237.26 66.26 236.74 66.52 236.19 66.69L240.84 73.85L235.64 73.85L232 67.76L229.89 67.93L229.9 73.85ZM232.13 64.45C234.13 64.31 235.18 63.45 235.18 61.75C235.18 60.05 234.08 59.37 231.75 59.37L229.81 59.37L229.81 64.51L232.13 64.45Z" />
			<path id="Layer" fill-rule="evenodd" class="shp0" d="M262.43 73.85L257.85 73.85L256.51 70L249.78 70L248.47 73.86L243.89 73.86L250.33 55.73L256.11 55.73L262.43 73.85ZM253.17 59.29L250.77 66.4L255.5 66.4L253.17 59.29Z" />
			<path id="Layer" fill-rule="evenodd" class="shp0" d="M271.9 73.85L267.28 73.85L267.28 55.72L274.57 55.72C279.38 55.72 281.91 57.95 281.91 61.46C281.93 62.03 281.85 62.61 281.68 63.16C281.51 63.71 281.26 64.23 280.93 64.7C280.59 65.17 280.18 65.58 279.72 65.92C279.26 66.26 278.74 66.52 278.19 66.69L282.84 73.85L277.64 73.85L274 67.76L271.89 67.93L271.9 73.85ZM274.13 64.45C276.13 64.31 277.18 63.45 277.18 61.75C277.18 60.05 276.08 59.37 273.75 59.37L271.81 59.37L271.81 64.51L274.13 64.45Z" />
			<path id="Layer" class="shp0" d="M296.31 66.98L296.31 73.86L291.78 73.86L291.78 66.95L285.45 55.72L290.36 55.72L294.1 62.89L297.73 55.72L302.6 55.72L296.31 66.98L296.31 66.98Z" />
			<path id="Layer" class="shp1" d="M2.33 73.85L7.5 64.79L2.33 55.72L2.33 55.72L41.93 55.72L41.93 73.85L2.33 73.85L2.33 73.85L2.33 73.85Z" />
			<path id="Layer" class="shp0" d="M19.65 5.59L8.01 5.59L8.01 18.14L17.66 18.14L17.66 23.02L8.01 23.02L8.01 41.76L19.65 41.76L19.65 46.64L2.29 46.64L2.29 0.72L19.65 0.72L19.65 5.59L19.65 5.59Z" />
			<path id="Layer" class="shp0" d="M32.17 0.72L32.17 41.76L46.83 41.76L46.83 46.64L26.4 46.64L26.4 0.72L32.17 0.72L32.17 0.72Z" />
			<path id="Layer" class="shp0" d="M40.95 0.72L46.72 0.72L46.72 35.61L40.95 35.61L40.95 0.72Z" />
			<path id="Layer" fill-rule="evenodd" class="shp0" d="M69 35.6L78 0.72L84.56 0.72L93.47 35.6L87.55 35.6L85.87 28.68L76.37 28.68L74.64 35.6L69 35.6ZM77.32 23.75L84.87 23.75L81.15 8.38L81 8.38L77.32 23.75Z" />
			<path id="Layer" fill-rule="evenodd" class="shp0" d="M117.76 26.31C117.76 32.31 114.24 35.59 108.05 35.59L98 35.59L98 0.72L107.44 0.72C113.44 0.72 116.94 3.34 116.94 9.16L116.94 10.32C116.95 10.93 116.88 11.55 116.73 12.14C116.59 12.74 116.36 13.31 116.06 13.85C115.76 14.39 115.4 14.88 114.97 15.32C114.54 15.76 114.06 16.15 113.53 16.46C114.19 16.78 114.81 17.19 115.35 17.68C115.89 18.18 116.36 18.75 116.73 19.38C117.11 20.01 117.39 20.7 117.57 21.41C117.75 22.12 117.82 22.86 117.78 23.59L117.76 26.31ZM111.25 9C111.25 6.58 109.83 5.69 107.05 5.69L103.7 5.69L103.7 14.61L107.11 14.61C109.78 14.61 111.25 13.61 111.25 10.99L111.25 9ZM112 23.43C112 21.43 111 19.34 108.32 19.34L103.7 19.34L103.7 30.78L108.05 30.78C110.88 30.78 111.99 28.78 111.99 26.42L112 23.43Z" />
			<path id="Layer" class="shp0" d="M139.15 5.76L127.5 5.76L127.5 14.52L137.15 14.52L137.15 19.39L127.5 19.39L127.5 30.73L139.15 30.73L139.15 35.61L121.78 35.61L121.78 0.72L139.15 0.72L139.15 5.76L139.15 5.76Z" />
			<path id="Layer" class="shp0" d="M151.07 35.6L151.07 5.75L143.2 5.75L143.2 0.72L164.81 0.72L164.81 5.75L156.79 5.75L156.79 35.6L151.07 35.6L151.07 35.6Z" />
			<path id="Layer" class="shp0" d="M184.75 35.6L184.75 19.71L175.21 19.71L175.21 35.6L169.44 35.6L169.44 0.72L175.21 0.72L175.21 14.83L184.75 14.83L184.75 0.72L190.47 0.72L190.47 35.6L184.75 35.6L184.75 35.6Z" />
			<path id="Layer" class="shp0" d="M202.1 35.6L202.1 5.75L194.24 5.75L194.24 0.72L215.85 0.72L215.85 5.75L207.82 5.75L207.82 35.6L202.1 35.6L202.1 35.6Z" />
			<path id="Layer" fill-rule="evenodd" class="shp0" d="M238.85 24.33C238.85 31.46 235.49 35.6 228.85 35.6C222.21 35.6 219 31.46 219 24.33L219 11C219 3.86 222.25 -0.28 228.91 -0.28C235.57 -0.28 238.91 3.86 238.91 11L238.85 24.33ZM233.13 10.58C233.13 7.58 232.24 4.58 228.83 4.58C225.42 4.58 224.68 7.58 224.68 10.58L224.68 24.69C224.68 27.69 225.47 30.69 228.83 30.69C232.19 30.69 233.13 27.76 233.13 24.69L233.13 10.58Z" />
			<path id="Layer" class="shp0" d="M260.89 0.72L266.66 25.85L266.92 25.85L270.7 0.72L276.42 0.72L270.07 35.6L264.46 35.6L258.9 11.95L258.69 11.95L253.18 35.6L247.88 35.6L241.8 0.72L247.56 0.72L251.08 25.85L251.29 25.85L256.95 0.72L260.89 0.72L260.89 0.72Z" />
			<path id="Layer" class="shp0" d="M302.65 35.6L296.62 35.6L286.29 10.69L286.08 10.69L286.08 35.6L281.25 35.6L281.25 0.72L287.28 0.72L297.56 26.16L297.83 26.16L297.83 0.72L302.65 0.72L302.65 35.6L302.65 35.6Z" />
			<path id="Layer" class="shp0" d="M57.37 41.6L302.56 41.6L302.56 46.64L51.96 46.64L51.96 41.6L65.17 5.76L51.96 5.76L51.96 0.72L70.54 0.72L70.54 5.76L57.37 41.6L57.37 41.6Z" />
			<path id="Layer" class="shp2" d="M-45.5 -47.5L-45.5 -47.5ZM350.44 -47.5L350.44 -47.5ZM350.44 121.5L350.44 121.5ZM-45.5 121.46L-45.5 121.46Z" />
		</g>
	</g>
</svg>